/* XPM */
static char *image_xpm[] = {
/* width height ncolors chars_per_pixel */
"64 64 48 1",
"  c #f78c9c",
". c #de4a63",
"+ c #ce2942",
"@ c #ffefef",
"# c #fff7f7",
"$ c #ffffff",
"% c #f7c5ce",
"& c #d63a4a",
"* c #f7adb5",
"= c #ce213a",
"- c #f7949c",
"; c #f7c5c5",
"> c #ef6373",
", c #ffe6e6",
"' c #e67384",
") c #d6314a",
"! c #ef4a63",
"~ c #e6213a",
"{ c #d63a52",
"] c #ffced6",
"^ c #ef3a52",
"/ c #ef637b",
"( c #de314a",
"_ c #efa5ad",
": c #ef425a",
"< c #e6314a",
"[ c #f7d6d6",
"} c #ce3142",
"| c #ef5263",
"1 c #de213a",
"2 c #ef9cad",
"3 c #e65a6b",
"4 c #ef7384",
"5 c #c52131",
"6 c #ffdee6",
"7 c #f7d6de",
"8 c #f7b5bd",
"9 c #ef5a6b",
"0 c #ef5a73",
"a c #de5a6b",
"b c #ef6b7b",
"c c #f7a5b5",
"d c #e67b8c",
"e c #e62942",
"f c #ef526b",
"g c #de4a5a",
"h c #e68494",
"i c #d6213a",
"$$$$$$$$$$$$$$$$$$$$$$$$$$$$$$$$$$$$$$$$$$$$$$$$$$$$$$$$$$$$$$$$",
"$$$$$$$$$$$$$$$$$$$$$$$$$$$$$$$$$$$$$$$$$$$$$$$$$$$$$$$$$$$$$$$$",
"$$$$$$$$$$$$$$$$$$$$$$$$$$$$$$$$$$$$$$$$$$$$$$$$$$$$$$$$$$$$$$$$",
"$$$$$$$$$$$$$$$$$$$$$$$$$$$$$$$$$$$$$$$$$$$$$$$$$$$$$$$$$$$$$$$$",
"$$$$$$$$$$$$$$$$$$$$$$$$$$$$$$$$$$$$$$$$$$$$$$$$$$$$$$$$$$$$$$$$",
"$$$$$$$$$$$$$$$$$,7%]%%]%%%%%%%%%%]%]%%]%%%[]7,$$$$$$$$$$$$$$$$$",
"$$$$$$$$$$$$$#8b<e~e~e~~ee~e~ee~ee~1e~~e~~e~~e~<b8#$$$$$$$$$$$$$",
"$$$$$$$$$$$$c^1e~~e~~e~~e1ee~~e~~e~~e~1e~ee~e~e~~e^c$$$$$$$$$$$$",
"$$$$$$$$$$@3~ee~e~e~e1ee~~~~~e~e~~e~~ee~e~~e1~e~~e~e0@$$$$$$$$$$",
"$$$$$$$$$6^ee~~e~e~~e~~e~~eeee~ee~ee~e~~e~~e~e~ee~ee1)%$$$$$$$$$",
"$$$$$$$$@:~1e~~e~~e~e~e~eee~~~~~~~~~e~~e~ee~~e~~e~1e1=+7$$$$$$$$",
"$$$$$$$$3e~~e~ee1e~e~e~e~~~e|'h  h'|e~ee~e~~ee~e~~e1+55+$$$$$$$$",
"$$$$$$$c~e~e~e~~~~e~~e~~^h%#$$$$$$$$#%h<~e~~e~~e~eei5555'$$$$$$$",
"$$$$$$#^e1~e~~e~eee1e~.8#$$$$$$$$$$$$$$#8.~ee~~~ee1=5555+#$$$$$$",
"$$$$$$8~e~e~e~~e~e~~<*$$$$$$$$$$$$$$$$$$$#_<ee~ee1=555+55h$$$$$$",
"$$$$$$b~~e~1ee~~e~~0,$$$$$$$$$$$$$$$$$$$$$$,31eeei5+5+555{$$$$$$",
"$$$$$$<e~ee~~~e~e1h$$$$$$$$$$$$$$$$$$$$$$$$$#h111=55555555$$$$$$",
"$$$$$@~e~~e~~ee~~-$$$$$$$$$$$$$$$$$$$$$$$$$$$$ 15555555+557$$$$$",
"$$$$$7~~e~~e~ee~d$$$$$%3<<<<<<<<<<<!4%$$$$$$$$$a5555+555558$$$$$",
"$$$$$]~1ee~ee~13$$$$$[e~e~ee~ee~e~~e~~36$$$$$$$#}5555555+5_$$$$$",
"$$$$$]e~e~~e~~<@$$$$$'~~eee~~e~~e~e~e~e<[$$$$$$$755555+555_$$$$$",
"$$$$$]1~~~ee~~*$$$$$$3e~~~~~~e~~e~~e~e~~<,$$$$$$$'55555555_$$$$$",
"$$$$$]~~eee~~.$$$$$$$heeee~eeee~ee~~e~~ee>$$$$$$$#55555+55_$$$$$",
"$$$$$]~ee~~~~8$$$$$$$@.1e1e11~11~1ee~e~e~17$$$$$$$h5555555_$$$$$",
"$$$$$]1e~1~e^$$$$$$#$$#8hh  h     h^~1ee~~ $$$$$$$#5555555_$$$$$",
"$$$$$]~~e~eeh$$$$$$$$$$$$$$$$$$$$$$,<e~~e~/$$$$$$$$.5555+5_$$$$$",
"$$$$$]~e~ee~%$$$$$$$$$$$$$$$$$$$$$$$b~e~e~3$$$$$$$$2555555_$$$$$",
"$$$$$]~1e~~e#$$$$$$$$$$$$$$$$$$$$$$#:1~e~e>$$$$#$$$@555555_$$$$$",
"$$$$$]~~ee~|$$$$$$$$$$$$$$$6[[[[[[%/e~ee~~h$$$$$$$$$+555+5_$$$$$",
"$$$$$]1ee~~4$$$$#$$$#$$$$,f~~e~~e~~e~e~1e1;$$$$$$$$${55555_$$$$$",
"$$$$$]~e~~eh$$$$$$$$$$$$$3ee~ee~ee~e~~e~e:$$$$$$$$$$.55555_$$$$$",
"$$$$$]~e~~e-$$$$$$$$$$$$@1e~~e~~e~~e~e~e~%$$$$$$$$$$a555+5_$$$$$",
"$$$$$]~1ee~-$$$$$$$$$$$$@1e~~e~~e~~e~~e1~%$$$$$$#$$$a55555_$$$$$",
"$$$$$]~~e~1h$$$$$$$$$$$$$31ee~ee~ee~e~ee~:$$$$$$$$$$.55555_$$$$$",
"$$$$$]1~ee~4$$$$$$$#$$$$$,3111111~1e~e~~e~;$$$$$$$$${555+5_$$$$$",
"$$$$$]~e~~e|$$$$$$$$$$$$$$$7[[[[[[%/~~e~~eh$$$$$$$$$+55555_$$$$$",
"$$$$$]~e~~ee#$$$$$$$$$$$$$$$$$$$$$$#g~ee~~/$$$$$$$$#555+55_$$$$$",
"$$$$$]~1ee~e%$$$$$$$$$$$$$$$$$$$$$$$be~~e13$$$$$$$$255+555_$$$$$",
"$$$$$]~~e~~1h$$$$$$$$$$$$$$$$$$$$$$,<e~~e~b$$$$$$$$.555555_$$$$$",
"$$$$$]1~ee~e^$$$$$$$$$#8-        -h^e1~ee~ $$$$$$$#5555+55_$$$$$",
"$$$$$]~e~~e1~8$$$$$$$#f1e~~e~~ee~ee~e~ee117$$$$$$$h5555555_$$$$$",
"$$$$$]~e~~e~e!$$$$$$$ ~e~ee~e~ee~~e~~~e~1>$$$$$$$$+55+5555_$$$$$",
"$$$$$]~1ee~e~~*$$$$$$3~e~~e~~e~~~~~e~ee~<,$$$$$$$'555555+5_$$$$$",
"$$$$$]~~e~e~~e<@$$$$$'1e~e~e~e~eeeee~e~(%$$$$$$$755+55+555_$$$$$",
"$$$$$]~~e~~e~e~0$$$$$%e11ee1e~e~e~~~1137$$$$$$$$}555555555_$$$$$",
"$$$$$7~ee~e1e~e~h$$$$$%a(((((((((((.';$$$$$$$$$.55555+55=58$$$$$",
"$$$$$@~~~e~e~~ee1-$$$$$$$$$$$$$$$$$$$$$$$$$$$$a5555+5555557$$$$$",
"$$$$$$<~e~e~~e1e1+.$$$$$$$$$$$$$$$$$$$$$$$$$$.555+55555=55$$$$$$",
"$$$$$$bee~e~eeei=55}7$$$$$$$$$$$$$$$$$$$$$$7}55+55555+555{$$$$$$",
"$$$$$$8~~~~e~1===55++d$$$$$$$$$$$$$$$$$$$$'555555555=5555h$$$$$$",
"$$$$$$#^~eeei=55555555+h$$$$$$$$$$$$$$$$h+5555+55+555555=#$$$$$$",
"$$$$$$$c~e1==55555=55=55+.2#$$$$$$$$#2.+55=55=55555=5=55'$$$$$$$",
"$$$$$$$$9i55555=5=55=55=5=5=+{.aa.{+=55=5=55=55555=5555}$$$$$$$$",
"$$$$$$$$7=555=5=5555555555555555555555555555555=5=5555=7$$$$$$$$",
"$$$$$$$$$%=55555555=55=55=55=55=55=55=55=55=55=555555=;$$$$$$$$$",
"$$$$$$$$$$7}5555=5=55=55=55=55=55=55=55=55=55=555555}7$$$$$$$$$$",
"$$$$$$$$$$$$'=555555555555555555555555555555555555='$$$$$$$$$$$$",
"$$$$$$$$$$$$$#d&5555555555555555555555555555555=&d#$$$$$$$$$$$$$",
"$$$$$$$$$$$$$$$$$[8__________________________8[$$$$$$$$$$$$$$$$$",
"$$$$$$$$$$$$$$$$$$$$$$$$$$$$$$$$$$$$$$$$$$$$$$$$$$$$$$$$$$$$$$$$",
"$$$$$$$$$$$$$$$$$$$$$$$$$$$$$$$$$$$$$$$$$$$$$$$$$$$$$$$$$$$$$$$$",
"$$$$$$$$$$$$$$$$$$$$$$$$$$$$$$$$$$$$$$$$$$$$$$$$$$$$$$$$$$$$$$$$",
"$$$$$$$$$$$$$$$$$$$$$$$$$$$$$$$$$$$$$$$$$$$$$$$$$$$$$$$$$$$$$$$$",
"$$$$$$$$$$$$$$$$$$$$$$$$$$$$$$$$$$$$$$$$$$$$$$$$$$$$$$$$$$$$$$$$",
};