/* XPM */
static char *image_xpm[] = {
/* width height ncolors chars_per_pixel */
"32 32 40 1",
"  c #ef8c94",
". c #e66b7b",
"+ c #e63a52",
"@ c #de4a63",
"# c #ffd6d6",
"$ c #efb5bd",
"% c #efadb5",
"& c #ffefef",
"* c #fff7f7",
"= c #ef949c",
"- c #fff7ff",
"; c #ffffff",
"> c #ffdede",
", c #f7bdc5",
"' c #f7adb5",
") c #ce213a",
"! c #f7c5c5",
"~ c #e62142",
"{ c #ef6373",
"] c #ffe6e6",
"^ c #f7a5ad",
"/ c #e67384",
"( c #ffc5ce",
"_ c #e6213a",
": c #ffced6",
"< c #e6314a",
"[ c #ffd6de",
"} c #de213a",
"| c #ef7384",
"1 c #d64252",
"2 c #c52131",
"3 c #ef7b8c",
"4 c #ffdee6",
"5 c #ef94a5",
"6 c #ef9ca5",
"7 c #e62942",
"8 c #ef526b",
"9 c #de4a5a",
"0 c #de5263",
"a c #d6213a",
";;;;;;;;;;;;;;;;;;;;;;;;;;;;;;;;",
";;;;;;;;;;;;;;;;;;;;;;;;;;;;;;;;",
";;;;;;;;;;;;;;;;;;;;;;;;;;;;;;;;",
";;;;;;;;;;;;;;;;;;;;;;;;;;;;;;;;",
";;;;;;;;;>!!!!!!!!!!!!>;;;;;;;;;",
";;;;;;;'+7____7__7__~_~+%;;;;;;;",
";;;;;;3__7_~7~~~~~_~7_7~70;;;;;;",
";;;;;'~__7~~+ $##$ +~7}~a2/;;;;;",
";;;;;+77~~<6*;;;;;;*6<~}22);;;;;",
";;;;>~_}}+>;;;;;;;;;;[+2222$;;;;",
";;;;(~_7<[;!+7777<|&;;,22226;;;;",
";;;;!~7_^;;3}~~}_779*;;.2225;;;;",
";;;;!~~+*;;>{0888<~_^;;*2225;;;;",
";;;;!~_ ;;;;;;;;;:}73;;;@225;;;;",
";;;;!~~,;;;;;]%%'|_~ ;;; 225;;;;",
";;;;!~_#;;;;*+~_7_~7[;;;%225;;;;",
";;;;!~~#;;;;;+_~~_77>;;;%225;;;;",
";;;;!~_,;;;;;]%%%|_} ;;; 225;;;;",
";;;;!~7 ;;;;;;;;;:_~3;;;0225;;;;",
";;;;!7~+-;;4{8888<7~^;;-)225;;;;",
";;;;!~__^;;3}}}}~}~9*;;.2225;;;;",
";;;;(__7<>;!+777~</&;;$22226;;;;",
";;;;>~7~~<,;;;;;;;;;;,)2222,;;;;",
";;;;;+~~a2).-;;;;;;-.)22)2);;;;;",
";;;;;'})2222)@ $$ @)222222/;;;;;",
";;;;;;12222222222222222221;;;;;;",
";;;;;;;/)22222222222222)/;;;;;;;",
";;;;;;;;;,5==========6,;;;;;;;;;",
";;;;;;;;;;;;;;;;;;;;;;;;;;;;;;;;",
";;;;;;;;;;;;;;;;;;;;;;;;;;;;;;;;",
";;;;;;;;;;;;;;;;;;;;;;;;;;;;;;;;",
";;;;;;;;;;;;;;;;;;;;;;;;;;;;;;;;",
};