/* XPM */
static char *image_xpm[] = {
/* width height ncolors chars_per_pixel */
"128 128 64 1",
"  c #f7cece",
". c #e66b7b",
"+ c #de6373",
"@ c #ce2942",
"# c #efadb5",
"$ c #ffefef",
"% c #ef6b84",
"& c #ffeff7",
"* c #fff7f7",
"= c #ef949c",
"- c #fff7ff",
"; c #ffffff",
"> c #f79ca5",
", c #ffe6ef",
"' c #f7c5ce",
") c #d63a4a",
"! c #f7bdc5",
"~ c #f7adb5",
"{ c #ce213a",
"] c #e6737b",
"^ c #f7c5c5",
"/ c #e66373",
"( c #e62142",
"_ c #ef6373",
": c #ffe6e6",
"< c #f7a5ad",
"[ c #ef8c9c",
"} c #e6294a",
"| c #f7ced6",
"1 c #e67384",
"2 c #d6314a",
"3 c #f79cad",
"4 c #ef4a63",
"5 c #e6213a",
"6 c #ef3a52",
"7 c #ef425a",
"8 c #ce293a",
"9 c #e6314a",
"0 c #f7d6d6",
"a c #ce3142",
"b c #ef5263",
"c c #e67b84",
"d c #e6848c",
"e c #de213a",
"f c #ef7384",
"g c #d64252",
"h c #c52131",
"i c #ef7b8c",
"j c #ffdee6",
"k c #f7d6de",
"l c #f7b5bd",
"m c #ef94a5",
"n c #ef5a6b",
"o c #ef5a73",
"p c #ef9ca5",
"q c #de5a6b",
"r c #ef6b7b",
"s c #e67b8c",
"t c #e62942",
"u c #f7dede",
"v c #d63142",
"w c #de4a5a",
"x c #de5263",
"y c #d6213a",
";;;;;;;;;;;;;;;;;;;;;;;;;;;;;;;;;;;;;;;;;;;;;;;;;;;;;;;;;;;;;;;;;;;;;;;;;;;;;;;;;;;;;;;;;;;;;;;;;;;;;;;;;;;;;;;;;;;;;;;;;;;;;;;;",
";;;;;;;;;;;;;;;;;;;;;;;;;;;;;;;;;;;;;;;;;;;;;;;;;;;;;;;;;;;;;;;;;;;;;;;;;;;;;;;;;;;;;;;;;;;;;;;;;;;;;;;;;;;;;;;;;;;;;;;;;;;;;;;;",
";;;;;;;;;;;;;;;;;;;;;;;;;;;;;;;;;;;;;;;;;;;;;;;;;;;;;;;;;;;;;;;;;;;;;;;;;;;;;;;;;;;;;;;;;;;;;;;;;;;;;;;;;;;;;;;;;;;;;;;;;;;;;;;;",
";;;;;;;;;;;;;;;;;;;;;;;;;;;;;;;;;;;;;;;;;;;;;;;;;;;;;;;;;;;;;;;;;;;;;;;;;;;;;;;;;;;;;;;;;;;;;;;;;;;;;;;;;;;;;;;;;;;;;;;;;;;;;;;;",
";;;;;;;;;;;;;;;;;;;;;;;;;;;;;;;;;;;;;;;;;;;;;;;;;;;;;;;;;;;;;;;;;;;;;;;;;;;;;;;;;;;;;;;;;;;;;;;;;;;;;;;;;;;;;;;;;;;;;;;;;;;;;;;;",
";;;;;;;;;;;;;;;;;;;;;;;;;;;;;;;;;;;;;;;;;;;;;;;;;;;;;;;;;;;;;;;;;;;;;;;;;;;;;;;;;;;;;;;;;;;;;;;;;;;;;;;;;;;;;;;;;;;;;;;;;;;;;;;;",
";;;;;;;;;;;;;;;;;;;;;;;;;;;;;;;;;;;;;;;;;;;;;;;;;;;;;;;;;;;;;;;;;;;;;;;;;;;;;;;;;;;;;;;;;;;;;;;;;;;;;;;;;;;;;;;;;;;;;;;;;;;;;;;;",
";;;;;;;;;;;;;;;;;;;;;;;;;;;;;;;;;;;;;;;;;;;;;;;;;;;;;;;;;;;;;;;;;;;;;;;;;;;;;;;;;;;;;;;;;;;;;;;;;;;;;;;;;;;;;;;;;;;;;;;;;;;;;;;;",
";;;;;;;;;;;;;;;;;;;;;;;;;;;;;;;;;;;;;;;;;;;;;;;;;;;;;;;;;;;;;;;;;;;;;;;;;;;;;;;;;;;;;;;;;;;;;;;;;;;;;;;;;;;;;;;;;;;;;;;;;;;;;;;;",
";;;;;;;;;;;;;;;;;;;;;;;;;;;;;;;;;;;;;;;;;;;;;;;;;;;;;;;;;;;;;;;;;;;;;;;;;;;;;;;;;;;;;;;;;;;;;;;;;;;;;;;;;;;;;;;;;;;;;;;;;;;;;;;;",
";;;;;;;;;;;;;;;;;;;;;;;;;;;;;;;;;;;;;;;;;;;;;;;;;;;;;;;;;;;;;;;;;;;;;;;;;;;;;;;;;;;;;;;;;;;;;;;;;;;;;;;;;;;;;;;;;;;;;;;;;;;;;;;;",
";;;;;;;;;;;;;;;;;;;;;;;;;;;;;;;;;;$0^l~~#~~~~~~~~~~#~~~~~~~~~~~~~~~~~~~~~~~~~~~~~~~~~~~~~~l!0$;;;;;;;;;;;;;;;;;;;;;;;;;;;;;;;;;;",
";;;;;;;;;;;;;;;;;;;;;;;;;;;;;;u>r6e(55t5(t5(t5(et(5tt5t5(t5(t5(te(55et(5et(5t(5t5t5(t5(t5(t5(t9rpu;;;;;;;;;;;;;;;;;;;;;;;;;;;;;;",
";;;;;;;;;;;;;;;;;;;;;;;;;;;&p4te(t5(t5(t(5(55t5(t55t5(5t(5t5t55t5(t5t(5t55te(5te(5t(5t55t(55t55t(t4p&;;;;;;;;;;;;;;;;;;;;;;;;;;;",
";;;;;;;;;;;;;;;;;;;;;;;;;$[95t5(t55te(t55t5tt5(t5(t5(5t(5t5(5t(5t5(t55t5(t5(t5t(5t(et5(t5(t5t((t55e(9[$;;;;;;;;;;;;;;;;;;;;;;;;;",
";;;;;;;;;;;;;;;;;;;;;;;;<9(5t(55t5(t55t55t(e((5t55t(5t(5ett(ett5(t55((5t(5t(5t5(5t55t(et(5et(5et(5(t5t9<;;;;;;;;;;;;;;;;;;;;;;;;",
";;;;;;;;;;;;;;;;;;;;;;:ne(tet(5t(5t(5t((t(5t55t5(t5(et(5t(55t55t5tt5(t5t55t55t(55t(5t(55t(5t55t55tt5t55tn:;;;;;;;;;;;;;;;;;;;;;;",
";;;;;;;;;;;;;;;;;;;;;'95tt5(55t(et55t(5et555t5t(et(5t55t55(5((5((5ett5e((5t(5t(5t(5t5t5(t55t5t(5t(55(55t(9';;;;;;;;;;;;;;;;;;;;;",
";;;;;;;;;;;;;;;;;;;;~t(5t(5(5t(55t(5t(5t5(t((t(5t55t55t(5(tt5tt5t(5((5tt5tet(5et(5t5(5t(55t((5t(5t(5(tt(e(}m--;;;;;;;;;;;;;;;;;;",
";;;;;;;;;;;;;;;;;;;ptt5t(55tt5t(5t(5t55(t5tt5555(5t((t(5tt55(55t55t55t5(5t55t5(t5(et(5tt5(t5t55t55tett5e((@h+--;;;;;;;;;;;;;;;;;",
";;;;;;;;;;;;;;;;;;~t5(55t5(t5(55t(5et5(t5(55ett(tt55t5555t55t(5((5(t5t(55((5t(5t55tt5(55et(5et((t5(t5(e(((@hhs--;;;;;;;;;;;;;;;;",
";;;;;;;;;;;;;;;;;^t(55t(et(5e(t5(t5(t5tt5(5tt((55(55t5tt((((tt(tt(tt((5tt5t(5t(5t(5(5(5t(5t5(t5et(5t(5t((@hhhhm-;;;;;;;;;;;;;;;;",
";;;;;;;;;;;;;;;;:9t5(t(5t(5t(5t(55t5(t55et(5t555t5t((t((5e5eeeeeeeeee5e((t55t55t5t(5t5tt55t(5t(55t55te((y{hh@hhk-;;;;;;;;;;;;;;;",
";;;;;;;;;;;;;;;;n((t5t55t55t5t5et5(t55(5tt5(55tt(t((5ee9/[#^k,$**&:k'#[/9e(((t((55t5t(5(5t(5t55t5t(5t(((@hhhhhh@-;;;;;;;;;;;;;;;",
";;;;;;;;;;;;;;;<(tt55(5t(5t(55t((t5(t5(t(5(5(t((eee9.#u;;;;;;;;;;;;;*;;;;u#.9eet((t5(et5(t5t5(t(t5(te((@hhh@hh@h+-;;;;;;;;;;;;;;",
";;;;;;;;;;;;;;$9(55e(t((5t(5t(5t55t5ett5(55ttteet.!*;;;;;;;;;;;;;;;;;;;;;;;;*!.tett(55tt5(et5tt5(55te(ehhhhhhhhhhk-;;;;;;;;;;;;;",
";;;;;;;;;;;;;;[5t(5tt5te5t5et(55t5(t5(555tt(ee9m$;;;;;;;;;;;;;;;;;;;;;;;;*;;;*;,=9ett(5t(55((5e55(t(((@hhh@hh@hh@q-;;;;;;;;;;;;;",
";;;;;;;;;;;;;*9(5tt5(55t(5t(55t(t(5t(55t(t(e9p*;;;;;;;;;;;;;;;;;;;;;;;;;;;;;;;;;**p9e((55t(t5t(t(tte(@hh@hhhhhhhhh&-;;;;;;;;;;;;",
";;;;;;;;;;;;;<(5(55(5(t5(t5(5tt5et55t5tt(et[*;;;;;;;;;;;;;;*;;;*;;;;;;;;;;;;;;;;;;;$[t5tt5t55t55t5e((hhhhhhhhh@hhh+-;;;;;;;;;;;;",
";;;;;;;;;;;;;455t(5tt5t(55t5t(55(5t(5t((equ;;;;*;;;*;;;*;;;;;;;;;;;*;;*;;;;;;;;;;;;;;uq((5(5((55((((@hh@hh@h@hhhhh@-;;;;;;;;;;;;",
";;;;;;;;;;;;ut(5ttet(55t5t(5t(5(t(5t(5etp;;;;;;;;;;;;;;;;;;;;;;;;;;;;;;;;;;;;;;;;;;;;;;pte(tt5tt(t(@hhhhhhhhhhhhh@h|-;;;;;;;;;;;",
";;;;;;;;;;;;3(et(5555te(t5t(e5tt5t55(ewk;;*;;;;;;;;;;;;;;;;;;;;;;;;;;;;;;*;;*;;;;;;;;;;;kw5(555teeyhhhhh@hhhhhh@hhh+;;;;;;;;;;;;",
";;;;;;;;;;;;r55t5(5tt(t5(55(5t(555tt(/$;;;;;;;;;;;;;;;;;;;;;;;;;;;;;;;;;;;;;;;;;;*;;;;;;;$/e(t(((({hh@hhhhhh@h@hhhha;;;;;;;;;;;;",
";;;;;;;;;;;;6(5t(5t((55t5(t5tt5(t((es*;;;;;;;;;;;;;;;;;;;;;;;;;;;;;;;;;;;;;;;;;;;;-;*;;*;;*se(t((@hhhh@hhhh@hhhhhhh@-;;;;;;;;;;;",
";;;;;;;;;;;$(5(t5t55t55tt5t(5(55t(5d;;;;;;;;;;;;;;;;;;;;;;;;;;;;;;;;;;;;;;;;;;;;;;;;;;;;;;;;de((@hhhhhhhh@hhhhhhh@hhk;;;;;;;;;;;",
";;;;;;;;;;;0(5t5(et(5t(((e5t55tt5(d;;;;;;;;;;;;;;;;;;;;;;;;;;;;;;;;;;;;;;;;;;;;;;;;;;;;;;;;;;deyhhhh@hh@hhhhhh@hhhhh#;;;;;;;;;;;",
";;;;;;;;;;;!tt5t(55t(et55t5(t5((es;;;;;;;;;;;;lfbx4bx4b4x44x44x44x44bn.[l$;;;;;;;;;;;;;;*;;;;;chhhhhhhhhhhh@hhh@hhhhm-;;;;;;;;;;",
";;;;;;;;;;;l5(55t(5t5(5t5t((5t(5/*;;;;;;;;;;:x(5t5t5(t(5t55t55t55t((t((5tt/!;;;;;;;;;;;;;;;;;;*ahhhhhh@hhhhhhhhhhhhhs;;;;;;;;;;;",
";;;;;;;;;;;~(5t(5t(5t5t((5t55t5w$;;;;*;;;;;,6e(t5(5(5(e55t5t5(t5(t5et55et(55b ;;;;;;;;;;;;;;*;;uhhhhhhhhh@hh@hh@hhhhs-;;;;;;;;;;",
";;;;;;;;;;;~(t5(t55t(55t55t5t(tk;;;;;;;;;;;.(5t5t(5tt5tt((t((5t(5t(5t5(t5(et(t[;;;;;;;;;;;;;;;;;#hhhhhh@hhhhhhhhh@hhs;;;;;;;;;;;",
";;;;;;;;;;;~(5t5e(t5(t5(et(5((p;;;;;;;;;;;uett5(5tet5(55t55et55t55t5(t5(t5(t5(5.*;;;;;;;;;;;;;;;;+hhhhhhhh@hh@hhhhhhs-;;;;;;;;;;",
";;;;;;;;;;;~(5tt5(t5et(5t(5te/;;;;;;;;;;;;#e(55t(5t5(5t(5t(5tte((5t(5t55t5(5tetto*;;;;;;*;;;;;;;;;ahhhhhhhhhhhhh@hhhs-;;;;;;;;;;",
";;;;;;;;;;;~t(5(5t5t(55t55t5tu;;;;;;;;;;;;=e((5t(5t5(t5(t5(t5(5tt5t(5t(5t5t(5t55(r;;;;;;;;;;;;;;;;'hhhhh@hhhhh@hhhhhs;;;;;;;;;;;",
";;;;;;;;;;;~(5(5t(55t5(t5t(([;;;*;;;*;;;;;pe(t5t55t(5te5(55(55t55e5t5et(5t5(5(5(t(p;;;;;;;;;;;;*;;;qhhhhhhh@hhhhhhhhs-;;;;;;;;;;",
";;;;;;;;;;;~(5tt5t(5tt5((5t9*;;;;;;;;;;*;;|yet(5t(5t5(ttttttt(t((t((t5(tet(5t5tt5ttu;;;;;;;*;;;;;;;uhhhhhh@hhh@hh@hhs-;;;;;;;;;;",
";;;;;;;;;;;~(t5(5et(5(5ett5p;;;;;;;;;;;;;;;xe((e((55t5555e55555t55t55t5(55t5t(5(e5(r;;;;;;;;;;;;;;;;+hhhhhhhhhhhhhhhs-;;;;;;;;;;",
";;;;;;;;;;;~(5t5(t55t5(t5(9*;;;;;;;;;;;;;;;|vett(tt((t((((((t((5t5(5t5t5(t5(et55(t5tu;;;;;;;;;;*;;;;$hhhhh@hh@hhhhhhs;;;;;;;;;;;",
";;;;;;;;;;;~(5t(5t5(t5tt(5m;;;;;;;;;;;;;;;;;'2eteet(ettettttett(t((t((5t(5t(5tt5tt(5[;;;;;;;;;;;;;;;;qhhhhhhhhhh@hhhs-;;;;;;;;;;",
";;;;;;;;;;;~(5t5(5tt5(55et$;;;;*;;;*;;;;;;*;;udgyyyyeeeeeeeeeeeeeeeee(5t55t55(5t55et7;;;;;;;;;;;;;;;;uhhhhhh@hh@hhhhs-;;;;;;;;;;",
";;;;;;;;;;;~(t5(t5(5et(5t%;;;;;;;;;;;;;;;;;;;;;;***$*$&$*$&$&$&$****$0s((5t(5t(5t(5t(:;;;;*;;;;;;;;;;;ahhhhhhhhhhhhhs-;;;;;;;;;;",
";;;;;;;;;;;~(55te(t5(t5t5!;;;;;;;;;;;;*;;;;;;;;;;;;;;;;;;;;;;;;;;;;;;;;pet(5tt5((5t(5!;;;;;;;;*;;;;;;;dhhhhh@hhh@hhhs-;;;;;;;;;;",
";;;;;;;;;;;~t5(t5(5t(5t59*;;;;;;;;;;;;;;;;;;;;*;;*;;;;;;;;;;;;;;;;;;;;;;n(55(5et55t55<;;;;;;;;;;;;;;;;&hhhhhhhh@hhhhs-;;;;;;;;;;",
";;;;;;;;;;;~((5t(5t5t55(%;;;;;;;;;;;;;;;;;;;;;;;;;;;;;;;;;;;;;;;;;;;;;;;<et(5t(5tt(5tm;;;;;;;;;;;;;;;;;ahhhhhhhhhhhhs-;;;;;;;;;;",
";;;;;;;;;;;~(5t55t(5t((t#;;;;*;;;*;;;;;;;;*;;;;;;;;;*;;;;;;;;;;;;;;;;;;;l(5tt5t(5(55(=;;;;;;;;;;;;;;;;;1hhhh@h@hhhhhs-;;;;;;;;;;",
";;;;;;;;;;;~t5t5(t5(5eteu;;;;;;;;;;;;;;;;;;;;;;*;;;;;;;;;;;;;;;;;;;;;;;;[(55(55(55t5(p;;;-;*;;*;;;*;;;;'hhhhhhhhh@hhs-;;;;;;;;;;",
";;;;;;;;;;;~((5t(et5(t56;;;;;;;;;;;;;*;;;;;;;;;;;;;;;;;;;;;;;;;;;;;;;;;$9ttet(t(tt(t(#;;;;;;;;;;;;;;;;;;hhhhhhhhhhhhs-;;;;;;;;;;",
";;;;;;;;;;;~(55t5(5tt5(_;;;;;;;;;;;;;;;;;;;;;;;;-;;;;;;;;;;;;;;;;;;;;;$n(t5(5t55e(55e ;;;;;;;;;;;;;;;;;;ahhhh@hh@hhhs-;;;;;;;;;;",
";;;;;;;;;;;~(t5t(5t5(55[;;;;;;;;;;;;;;;;;;;;;;;;;;;;;;0#<<<<<<<<<<<<<d9(55t5(t5(t5t(t*;;;;;;;;;;;;;;;;;;xhhhhh@hhhhhs-;;;;;;;;;;",
";;;;;;;;;;;~(5t5(5t(5t(#;;;;;*;;;*;;;;;;*;;;*;;;;;;;'4et5t5(5t(5t5(t5((5t(5t(55tt55(n;;;;;;;;;;;;;;;;;;;shhhhhhhhhhhs-;;;;;;;;;;",
";;;;;;;;;;;~(5t(5t5(et(^;;;;;;;;;;;;;;;;;;;;;;;;;;;#t5t5(5t5(te(5te(t5tt5t(5t5((5t5(#;;;;*;;;*;;;*;;;;;;phhhh@hh@hhhs-;;;;;;;;;;",
";;;;;;;;;;;~t(5te(t5t55k;;;;;;;;;;;;;;;;;;;;;;;;;;0tt(5t(5t(5t55t(55t55(e5t5ett55t(9*;;;;;;;;;;;;;;;;;;;#hhhhhhhhhhhs-;;;;;;;;;;",
";;;;;;;;;;;~(55t5t5(5t(,;;;;;;;;;;;;*;;;;;;;;;;;;;/5(55t5(5t55t(5(t5(t5t(5t(5t(5t(ep;;;;;;;;;;;;;;;;;;;;khhh@hhh@hhhs-;;;;;;;;;;",
";;;;;;;;;;;~(5t((5t(5te*;;;;;;;;;;;;;;;;;;;;;;;;;$e(5t(5t(et(5tt55tt5(5t(5t(5(55t(7*;;;;;;;;;;;;;;;;;;;;uhhhhhh@hhhhs-;;;;;;;;;;",
";;;;;;;;;;;~t(5t55(5t(5*;;;;*;;;*;;;;;;;;;*;;;*;;|e(t5(t5(5t5(5(5t(55t5(55t55t5t(t0;;;;;;;;;;;;;;;;;;;;;&hhhhhhhhhhhs-;;;;;;;;;;",
";;;;;;;;;;;~(55t5t(5t55*;;;;;;;;;;;;;;;;;;;;;;;;;|et5t55t55t55(et(5et((t5t((t5t(5t0;;;;;;;;;*;;;*;;;;;;;-hhhhh@hhhhhs-;;;;;;;;;;",
";;;;;;;;;;;~(5t((ett5(t*;;;;;;;;;;;;;;;;;;;;;;;;;$te(5t(t((t(ttt5t5(t55et(5et5(e5t7*;;;;*;;;;;;;;;;*;;;;uhhh@hhhh@hhs-;;;;;;;;;;",
";;;;;;;;;;;~t(5t55(5et5,;;;;;;;;;;;;;;*;;;;;;;;;;;/e(t5t55t5555555t(5t(5t(5t5(5tt((p;;;;;;;;;;;;;;;;;;;;khhhhhhhhhhhs-;;;;;;;;;;",
";;;;;;;;;;;~(55t5tt5(t5k;;;;;;;;;;;;;;;;;;;;;;;;;*0t(5(55t5tt5(t((t555tt55t5(t5((559*;;;;;;;;;;;;;;;;;;;#hhhhh@h@hhhs-;;;;;;;;;;",
";;;;;;;;;;;~(5t(5t(5t(5';;;;;;*;;;*;;;;;;;;;*;;;;;;#e5t(t(((((t((t(tt(5t(5t5t5t55t5t#;;;;;;;;;;;;;;;;;;;mhhh@hhhhhhhs-;;;;;;;;;;",
";;;;;;;;;;;~(5t(5(55t55~;;;;;;;;;;;;;;;;;;;;;;;;;;;;'xe(eeeeeeeeeeee(((55t((5(5tt((5o;;;;;;*;;;*;;;;;;;;1hhhhhhhhhhhs-;;;;;;;;;;",
";;;;;;;;;;;~(5t5ett5(t([;;;;;;;;;;;;;;;;;;;;;;;;*;;;;;k#<<#<<<<<<<<<pd9(t5(5et(5tet5t*;;;;;;;;;;;;-;;;;;xhhhhh@hh@hhs-;;;;;;;;;;",
";;;;;;;;;;;~t(5t(5t(5(e/;;;;;;;;;;;;;;;*;;;;;;;;;;;;;;;;;;;;;;;;;;;;;;$q(5t5tt5(555t5|;;;;;;;;;;;;;;;;;;ahhh@hhhhhhhs-;;;;;;;;;;",
";;;;;;;;;;;~(55t5(55tt56;;;;;;;;;;;;;;;;;;;;;;;;;;-;;;*;;;*;;;*;;;*;;;;$9tt5((5t5(t((#;;;;;;;;;;;;;;;-;-hhhhhhhh@hhhs-;;;;;;;;;;",
";;;;;;;;;;;~(5t(5t5(t5(5:;;;;;;*;;;*;;;;;;*;;;;;;;;;;;;;;;;;;;;;;;;;;;;;[(5t55t(5t(5ep;;;;;;;;;;;;;;;;;|hhhhh@hhhhhhs-;;;;;;;;;;",
";;;;;;;;;;;~t(5t(5t(5ett#;;;;;;;;;;;;;;;;;;;;*;;;;;;;;;;;;;;;;;;;;;;;;;;l5(5(t5t5t55t=;;;;*;;;*;;;;;;;;shhh@hhh@hhhhs-;;;;;;;;;;",
";;;;;;;;;;;~(55t5ett(5((r;;;;;;;;;;;;;;;;;;-;;;;;;;;;;;;;;;;;;;;;;;;;;;;<e(tet(5t5(t(m;;;;;;;;;;;;;;;;;ah@hhhhhhhhhhs-;;;;;;;;;;",
";;;;;;;;;;;~(5t(t5(55t5t9*;;;;;;;;;;;;;*;;;;;;;;;;;;;;;;;;;;;;;;;;;;;;;;ntt5t55e((5te<;;;;;;;;;;;;;;;;&hhhhhhh@hh@hhs-;;;;;;;;;;",
";;;;;;;;;;;~(5t(555t5(t5(!;;;;;;;;;;;;;;;;;;;;;;;;;;;;;;;;;;;;;;;;;;;;;<e(55(5tt5tt5e!;;;;;;;;;;;-;;;;mhhhhh@hhhhhhhs-;;;;;;;;;;",
";;;;;;;;;;;~(5t55tt(t5(55%;;;;;;;;*;;;;;;;;;;;;;*********************ki5t5(t5t(5(55(5:;;;;;;;;;;;;;;;-ah@hhhhhhh@hhhs-;;;;;;;;;;",
";;;;;;;;;;;~(t5(t((5et5ttt$;;;;;;;;;;;;;;;;;;$[w5(t5t(5(55t55(5(t5(t5(5t55tt5(55t5t(w;;;;;;;*;;;;;;;;khhhhh@hhh@hhhhs-;;;;;;;;;;",
";;;;;;;;;;;~(5t5et55t(5t(5m;;;;;;;;;;;;;;;;;'9t5t5(55t55t5t5(tett(5t(5t5(t(5e(t5t((e[;;;;;;;;;;;;;;;;+hhhh@hhhhhhhhhs-;;;;;;;;;;",
";;;;;;;;;;;~(5t(5t5(t5(55t9*;;;;;;;;;*;;;;;0tt55t(5t((tt(t((5tt5555t55(t5(55tt5(5(etu;;;;;;;;;;;;;;;&hhhhhhhhh@hhhhhs;;;;;;;;;;;",
";;;;;;;;;;;~(5t5(5t(5t5t(te3;;;;;;;;;;;;;;;b(5((5(et55e(55et55(55t((t5(te5t5t(55tte.;;;;;;;;;-;;;;;-+h@hh@hhhhhhh@hhs-;;;;;;;;;;",
";;;;;;;;;;;~t(5t(5t5(5t5(556*;;;;;;;;;;;;;|e(t5tt5t(5tt5t(5tt5t(t(t5ett55(t(5(5t((tu;;;;*;;;;;;;;;-,hhhhhhhh@hh@hhhhs-;;;;;;;;;;",
";;;;;;;;;;;~(55t5(t5(te(t5(t[;;;;;;;;;;;;;pett55t55t5(t5(t5(t5(t55t55(55t(5t55tt(ep;;;;;;-;;;;;;;;;qhhh@hh@hhhhhhhhhs;;;;;;;;;;;",
";;;;;;;;;;;~(5t(5tet5(5t5(t5tu;;;;;;;;;;-;[ee((5((5(55(55(55(55(e5((5t((tt55tt(ee.;;;;;;;;;;;;;;;;'hhhhhhhhhhh@hhhhhs-;;;;;;;;;;",
";;;;;;;;;;;~(t5(t5(5t5(t5et55o;;;;;;;;;;;;#e(t5tt5ttttttt(ttttttttttt5t555(5t(eeq*;;;;;;;;;;;;;;;-@hh@hh@hh@hhh@hh@hs-;;;;;;;;;;",
";;;;;;;;;;;~(5t55t(5tt5(t5(t5(<;;;;;;;;;;;uy(te(5e55e555e555e5555555555t5(tt(ee.*;;;*;;;;;;;;;;;;+hhhhhhhhhhhhhhhhhhs;;;;;;;;;;;",
";;;;;;;;;;;~(5t5(t5(5(55tt5(tetk;;;;;;;;;;;.e(((t((t((t((t(t((t((t((t((((t(eee[;;;;;;;;;;;;;;;--#h@hh@hhh@hhhh@hhhhhs;;;;;;;;;;;",
";;;;;;;;;;;~(t5tt5(5tet(5te5t5(7$;;;;;;;;;;ugytt(t(t((t(t((t((t((t(((tttteeex ;;;;;;;;;-;;;;;;;,@hhhhhhhhhhh@hhhh@hhs;;;;;;;;;;;",
";;;;;;;;;;;l5(5(5ett(5t(55(t5(t5/*;;;;;;;;;;uxyyeeeeeeeeeeeeeeeeeeeeeeeeey+!*;;;;;;;;;;;;;;;;;-ahhhhh@hh@hh@hhhhhhhhs;;;;;;;;;;;",
";;;;;;;;;;;!t5t5t(5t55(5t5(t5t5((i;;;;;;;;;;;-#1xwxwwxwwwwxwxxwxwwxxxq+d#$;;;*;;*;;;;;;;;;;;--ghhhh@hhhhhhhhhhh@hhhhm;;;;;;;;;;;",
";;;;;;;;;;;0((5t(55(5tt5(tt55(5t(e[-;;;;;;;;;;;;;;-;;;;;;;;;*;;;;;;;;;;;;;;;;;;;;;;-;;;;;;;;-xhhh@hhhhhh@hh@hh@hhh@h#;;;;;;;;;;;",
";;;;;;;;;;;$(55t55tt5t(55t55(t(et(([--;;;;;;;;;;;;;;;;;;;;;;;;;*;;;*;;;*;;;;;;;;;;;;;;;;;;;-xhhhhhhhh@hhhhhhhhhhhhhhu;;;;;;;;;;;",
";;;;;;;;;;;;9tt5(t((55(et(55tte(((y@g--;;;;;;;;;;;;;;;;;;;;;;;;;;;;;-;;;;;;-;;;-;;;;;;;;;--ghhh@hh@hhhhh@hh@hhhh@hh{;;;;;;;;;;;;",
";;;;;;;;;;;;r((5t55et(5tt5tt(e(((@{hh@,--;;;;;;;;;;;;-;;;-;;;-;;;;;;;;;;;;;;;;;;;;;;;;;;;,@h@@hhhhhhhh@hhhhhhhh@hhh);;;;;;;;;;;;",
";;;;;;;;;;;;355(5t(5tt5(55te(((e{hh@hh@!--;;;;;;;;;;;;;;;;;;;;;;;;;;;;;-;;;;;;;;;;;;;;;;#@hhhhhhh@hh@hhhhhh@hhhhhhh+;;;;;;;;;;;;",
";;;;;;;;;;;;j5tt5(t5(5t5(t((e(@{hhhhhhhh1--;;;;;;;;;;;;;;;;;;;;;;;;;;;;;;;;;;;;;;;;;;-;+h@hhhhhhhhhhhhhh@hhh@hh@hhh';;;;;;;;;;;;",
";;;;;;;;;;;;;4(5t55t5(5tte(((@h@hh@hh@hh@@'--;;;;;;;;;;;;;;;;;;;-;;;;;;;;;;;;;;;;;;;-'@hhhhh@hh@hh@hh@hhhhhhhhhhhh@;;;;;;;;;;;;;",
";;;;;;;;;;;;;<5(5t((t5(te((@{hhhhhhhhhhhhhhq,--;;;;;;;;;;;;;;;;;;;;;;;;;;;;;;;;;;;-,qhh@hhhhhhhhhhhhhhhh@hh@hhhhhh.;;;;;;;;;;;;;",
";;;;;;;;;;;;;*95t(5t5et((({hhhhhh@hh@hh@hhhh@+&--;;;;;;;-;;;-;;;;;;;-;;;;;;;;;;;-&+@hhhhhh@hh@hh@hh@hh@hhhhhhh@hh{,;;;;;;;;;;;;;",
";;;;;;;;;;;;;;[(5t55t(((@h{h@hh@hhhhhhhhhh@hh@@+k--;;;;;;;;;;;;;;;;;;;;;;;;;-;-k+@h@hh@hh@hhhhhhhhhhhhhhhhh@hhhhhx;;;;;;;;;;;;;;",
";;;;;;;;;;;;;;$9(5t((te{hhhhhhhhhhhhh@hhh@hhhhhhhgm&--;;;;;;;;;;;-;;;;;;;----[ghhhhhhhhhhhhhh@hh@hhhhh@hhhhhh{hh{u;;;;;;;;;;;;;;",
";;;;;;;;;;;;;;;<(5t(e{{hh@hhhh@hh@hh@hhhhhhhhhhhhhhhgs|-;;-;;;-;;;;;;-;;-|sghhhhhhhhhhhhh@hhhhhhhhh@hhhhh@hhhhhh.;;;;;;;;;;;;;;;",
";;;;;;;;;;;;;;;;n((y{hhhhh{hhhhhhhhhhhhh@hh@h@h@h@h@h@h@2qsm'k&--&k'msq2@h@h@h@h@h@h@h@hhhhh@hhhhh@hhh@hh@hh{hha;;;;;;;;;;;;;;;;",
";;;;;;;;;;;;;;;;,9{hhhh{hhhh@hhhhh@hhh@hhhhhhhhhhhhhhhhhhhhhhhhhhhhhhhhhhhhhhhhhhhhhhhhhh@hhhhh@hhhhhhhhhhhhhh{0;;;;;;;;;;;;;;;;",
";;;;;;;;;;;;;;;;;=hh{h{hh{hhhh@hh@hhhhhhhhhhhhhhhhhhhhhhhhhhhhhhhhhhhhhhhhhhhhhhhhhhhhhhhhhh@hhh@hhh@hhhh{hhhhm;;;;;;;;;;;;;;;;;",
";;;;;;;;;;;;;;;;;;]hhhhhhh{hh{hhhhhhh@hh@h@h@h@h@h@h@h@h@h@h@h@h@h@h@h@h@h@h@h@h@h@h@h@h@hh@hhhhhhhhh{hh{hh{h1;;;;;;;;;;;;;;;;;;",
";;;;;;;;;;;;;;;;;;;+hhh{hhh{hhhh{hhh@hhhhhhhhhhhhhhhhhhhhhhhhhhhhhhhhhhhhhhhhhhhhhhhhhhhhhhhhhh@hh{hhh{hhhhh+;;;;;;;;;;;;;;;;;;;",
";;;;;;;;;;;;;;;;;;;;1hhh{hhhhh{hh{hhhhhhhhhhhhhhhhhhhhhhhhhhhhhhhhhhhhhhhhhhhhhhhhhhhhhhhhhh{hh{hhh{hhhhhhhc;;;;;;;;;;;;;;;;;;;;",
";;;;;;;;;;;;;;;;;;;;;=hhhh{hh{hhhhh{hh{{h{{h{{h{{h{{h{{h{{h{{h{{h{{h{{h{{h{{h{{h{{h{{h{{h{{hh{hhhhh{hh{hh{m;;;;;;;;;;;;;;;;;;;;;",
";;;;;;;;;;;;;;;;;;;;;;|ahhh{hhhh{hhh{hhhhhhhhhhhhhhhhhhhhhhhhhhhhhhhhhhhhhhhhhhhhhhhhhhhhhhhhhhh{h{hhhhha0;;;;;;;;;;;;;;;;;;;;;;",
";;;;;;;;;;;;;;;;;;;;;;;;]hhhhh{hh{hhhhhhhhhhhhhhhhhhhhhhhhhhhhhhhhhhhhhhhhhhhhhhhhhhhhhhhhhh{hh{hhhhhhh];;;;;;;;;;;;;;;;;;;;;;;;",
";;;;;;;;;;;;;;;;;;;;;;;;;:xhhhhhhhh{hh{{h{{h{{h{{h{{h{{h{{h{{h{{h{{h{{h{{h{{h{{h{{h{{h{{h{{hh{hhhhhhhx:;;;;;;;;;;;;;;;;;;;;;;;;;",
";;;;;;;;;;;;;;;;;;;;;;;;;;;:.8hhhhhhhhhhhhhhhhhhhhhhhhhhhhhhhhhhhhhhhhhhhhhhhhhhhhhhhhhhhhhhhhhhhh@.:;;;;;;;;;;;;;;;;;;;;;;;;;;;",
";;;;;;;;;;;;;;;;;;;;;;;;;;;;;;^+){hhhhhhhhhhhhhhhhhhhhhhhhhhhhhhhhhhhhhhhhhhhhhhhhhhhhhhhhhhhh{)+!;;;;;;;;;;;;;;;;;;;;;;;;;;;;;;",
";;;;;;;;;;;;;;;;;;;;;;;;;;;;;;;;;;:#=dccccccccccccccccccccccccccccccccccccccccccccccccccccd=#:;;;;;;;;;;;;;;;;;;;;;;;;;;;;;;;;;;",
";;;;;;;;;;;;;;;;;;;;;;;;;;;;;;;;;;;;;;;;;;;;;;;;;;;;;;;;;;;;;;;;;;;;;;;;;;;;;;;;;;;;;;;;;;;;;;;;;;;;;;;;;;;;;;;;;;;;;;;;;;;;;;;;",
";;;;;;;;;;;;;;;;;;;;;;;;;;;;;;;;;;;;;;;;;;;;;;;;;;;;;;;;;;;;;;;;;;;;;;;;;;;;;;;;;;;;;;;;;;;;;;;;;;;;;;;;;;;;;;;;;;;;;;;;;;;;;;;;",
";;;;;;;;;;;;;;;;;;;;;;;;;;;;;;;;;;;;;;;;;;;;;;;;;;;;;;;;;;;;;;;;;;;;;;;;;;;;;;;;;;;;;;;;;;;;;;;;;;;;;;;;;;;;;;;;;;;;;;;;;;;;;;;;",
";;;;;;;;;;;;;;;;;;;;;;;;;;;;;;;;;;;;;;;;;;;;;;;;;;;;;;;;;;;;;;;;;;;;;;;;;;;;;;;;;;;;;;;;;;;;;;;;;;;;;;;;;;;;;;;;;;;;;;;;;;;;;;;;",
";;;;;;;;;;;;;;;;;;;;;;;;;;;;;;;;;;;;;;;;;;;;;;;;;;;;;;;;;;;;;;;;;;;;;;;;;;;;;;;;;;;;;;;;;;;;;;;;;;;;;;;;;;;;;;;;;;;;;;;;;;;;;;;;",
";;;;;;;;;;;;;;;;;;;;;;;;;;;;;;;;;;;;;;;;;;;;;;;;;;;;;;;;;;;;;;;;;;;;;;;;;;;;;;;;;;;;;;;;;;;;;;;;;;;;;;;;;;;;;;;;;;;;;;;;;;;;;;;;",
";;;;;;;;;;;;;;;;;;;;;;;;;;;;;;;;;;;;;;;;;;;;;;;;;;;;;;;;;;;;;;;;;;;;;;;;;;;;;;;;;;;;;;;;;;;;;;;;;;;;;;;;;;;;;;;;;;;;;;;;;;;;;;;;",
";;;;;;;;;;;;;;;;;;;;;;;;;;;;;;;;;;;;;;;;;;;;;;;;;;;;;;;;;;;;;;;;;;;;;;;;;;;;;;;;;;;;;;;;;;;;;;;;;;;;;;;;;;;;;;;;;;;;;;;;;;;;;;;;",
";;;;;;;;;;;;;;;;;;;;;;;;;;;;;;;;;;;;;;;;;;;;;;;;;;;;;;;;;;;;;;;;;;;;;;;;;;;;;;;;;;;;;;;;;;;;;;;;;;;;;;;;;;;;;;;;;;;;;;;;;;;;;;;;",
";;;;;;;;;;;;;;;;;;;;;;;;;;;;;;;;;;;;;;;;;;;;;;;;;;;;;;;;;;;;;;;;;;;;;;;;;;;;;;;;;;;;;;;;;;;;;;;;;;;;;;;;;;;;;;;;;;;;;;;;;;;;;;;;",
";;;;;;;;;;;;;;;;;;;;;;;;;;;;;;;;;;;;;;;;;;;;;;;;;;;;;;;;;;;;;;;;;;;;;;;;;;;;;;;;;;;;;;;;;;;;;;;;;;;;;;;;;;;;;;;;;;;;;;;;;;;;;;;;",
};