/* XPM */
static char *image_xpm[] = {
/* width height ncolors chars_per_pixel */
"16 16 27 1",
"  c #f78494",
". c #efadb5",
"+ c #ffefef",
"@ c #ef6b84",
"# c #ffffff",
"$ c #f79ca5",
"% c #ffe6ef",
"& c #f7adb5",
"* c #ce213a",
"= c #e62142",
"- c #ffe6e6",
"; c #e67384",
"> c #f77b8c",
", c #f79cad",
"' c #e6213a",
") c #ffced6",
"! c #ef425a",
"~ c #ef4a5a",
"{ c #de213a",
"] c #e65a6b",
"^ c #ef7384",
"/ c #d64252",
"( c #c52131",
"_ c #f7d6de",
": c #e62942",
"< c #de5263",
"[ c #d6213a",
"################",
"################",
"####)&...&&)####",
"###>'{:<!:{=]###",
"##)==;%##%;[(.##",
"##&';-~!~$#/(;##",
"##.:%#$$ {-_(;##",
"##&!##)@]:+#*;##",
"##&~##_;]:+#*;##",
"##&:%#,$ {-_(;##",
"##&=^-~!~$#/(;##",
"##)=[/_##_/((.##",
"###<(((**(((/###",
"####.;;;;;;.####",
"################",
"################",
};